<svg xmlns="http://www.w3.org/2000/svg" viewBox="0 0 400 300" fill="none">
  <rect width="400" height="300" fill="#fdf2f8"/>
  <!-- Header -->
  <rect x="0" y="0" width="400" height="50" fill="#ec4899"/>
  <text x="30" y="32" font-family="system-ui" font-size="18" font-weight="bold" fill="white">💄 Beauty Salon</text>
  <!-- Decorative elements -->
  <circle cx="350" cy="100" r="40" fill="#f472b6" opacity="0.2"/>
  <circle cx="50" cy="250" r="30" fill="#ec4899" opacity="0.15"/>
  <!-- Hero content -->
  <rect x="30" y="75" width="180" height="14" rx="3" fill="#1e1e1e"/>
  <rect x="30" y="97" width="150" height="8" rx="2" fill="#1e1e1e" opacity="0.4"/>
  <rect x="30" y="120" width="110" height="32" rx="6" fill="#ec4899"/>
  <text x="48" y="140" font-family="system-ui" font-size="10" font-weight="bold" fill="white">Book Now</text>
  <!-- Services grid -->
  <rect x="30" y="170" width="105" height="55" rx="6" fill="white" stroke="#f472b6"/>
  <rect x="45" y="185" width="75" height="6" rx="2" fill="#ec4899"/>
  <rect x="45" y="200" width="50" height="4" rx="1" fill="#1e1e1e" opacity="0.3"/>
  <rect x="147" y="170" width="105" height="55" rx="6" fill="white" stroke="#f472b6"/>
  <rect x="162" y="185" width="75" height="6" rx="2" fill="#ec4899"/>
  <rect x="162" y="200" width="50" height="4" rx="1" fill="#1e1e1e" opacity="0.3"/>
  <rect x="264" y="170" width="105" height="55" rx="6" fill="white" stroke="#f472b6"/>
  <rect x="279" y="185" width="75" height="6" rx="2" fill="#ec4899"/>
  <rect x="279" y="200" width="50" height="4" rx="1" fill="#1e1e1e" opacity="0.3"/>
  <!-- Gallery teaser -->
  <rect x="30" y="240" width="340" height="45" rx="6" fill="#ec4899" opacity="0.1"/>
  <rect x="50" y="252" width="30" height="22" rx="3" fill="#f472b6" opacity="0.5"/>
  <rect x="90" y="252" width="30" height="22" rx="3" fill="#ec4899" opacity="0.5"/>
  <rect x="130" y="252" width="30" height="22" rx="3" fill="#f472b6" opacity="0.5"/>
  <text x="200" y="267" font-family="system-ui" font-size="10" fill="#ec4899">View Gallery →</text>
</svg>
