<svg xmlns="http://www.w3.org/2000/svg" viewBox="0 0 400 300" fill="none">
  <rect width="400" height="300" fill="#f0f9ff"/>
  <!-- Header -->
  <rect x="0" y="0" width="400" height="50" fill="#0369a1"/>
  <text x="30" y="32" font-family="system-ui" font-size="18" font-weight="bold" fill="white">📚 Education & Courses</text>
  <!-- Hero content -->
  <rect x="30" y="75" width="200" height="14" rx="3" fill="#1e1e1e"/>
  <rect x="30" y="97" width="170" height="8" rx="2" fill="#1e1e1e" opacity="0.4"/>
  <rect x="30" y="120" width="120" height="32" rx="6" fill="#0ea5e9"/>
  <text x="45" y="140" font-family="system-ui" font-size="10" font-weight="bold" fill="white">Browse Courses</text>
  <!-- Course cards -->
  <rect x="30" y="165" width="170" height="55" rx="6" fill="white" stroke="#0ea5e9"/>
  <rect x="40" y="175" width="80" height="6" rx="2" fill="#0369a1"/>
  <rect x="40" y="188" width="120" height="4" rx="1" fill="#1e1e1e" opacity="0.3"/>
  <rect x="40" y="200" width="50" height="12" rx="3" fill="#0ea5e9" opacity="0.3"/>
  <rect x="200" y="165" width="170" height="55" rx="6" fill="white" stroke="#0ea5e9"/>
  <rect x="210" y="175" width="80" height="6" rx="2" fill="#0369a1"/>
  <rect x="210" y="188" width="120" height="4" rx="1" fill="#1e1e1e" opacity="0.3"/>
  <rect x="210" y="200" width="50" height="12" rx="3" fill="#0ea5e9" opacity="0.3"/>
  <!-- Instructors -->
  <rect x="30" y="235" width="340" height="50" rx="6" fill="#0369a1" opacity="0.1"/>
  <text x="45" y="255" font-family="system-ui" font-size="10" fill="#0369a1">Expert Instructors</text>
  <circle cx="140" cy="262" r="12" fill="#0369a1" opacity="0.4"/>
  <circle cx="175" cy="262" r="12" fill="#0ea5e9" opacity="0.4"/>
  <circle cx="210" cy="262" r="12" fill="#0369a1" opacity="0.4"/>
  <circle cx="245" cy="262" r="12" fill="#0ea5e9" opacity="0.4"/>
</svg>
