<svg xmlns="http://www.w3.org/2000/svg" viewBox="0 0 400 300" fill="none">
  <rect width="400" height="300" fill="#eff6ff"/>
  <!-- Header -->
  <rect x="0" y="0" width="400" height="50" fill="#2563eb"/>
  <text x="30" y="32" font-family="system-ui" font-size="18" font-weight="bold" fill="white">🚀 SaaS Product</text>
  <!-- Hero with product mockup -->
  <rect x="220" y="70" width="150" height="100" rx="8" fill="white" stroke="#3b82f6"/>
  <rect x="230" y="80" width="130" height="80" rx="4" fill="#2563eb" opacity="0.2"/>
  <rect x="240" y="90" width="110" height="8" rx="2" fill="#2563eb"/>
  <rect x="240" y="105" width="80" height="6" rx="2" fill="#2563eb" opacity="0.5"/>
  <!-- Left content -->
  <rect x="30" y="80" width="160" height="14" rx="3" fill="#1e1e1e"/>
  <rect x="30" y="102" width="140" height="8" rx="2" fill="#1e1e1e" opacity="0.4"/>
  <rect x="30" y="125" width="90" height="32" rx="6" fill="#2563eb"/>
  <text x="45" y="146" font-family="system-ui" font-size="11" font-weight="bold" fill="white">Try Demo</text>
  <!-- Integration logos -->
  <rect x="30" y="180" width="340" height="50" rx="6" fill="white" stroke="#3b82f6" stroke-opacity="0.5"/>
  <text x="50" y="200" font-family="system-ui" font-size="10" fill="#2563eb">Integrates with:</text>
  <circle cx="80" cy="215" r="12" fill="#3b82f6" opacity="0.3"/>
  <circle cx="120" cy="215" r="12" fill="#3b82f6" opacity="0.4"/>
  <circle cx="160" cy="215" r="12" fill="#3b82f6" opacity="0.5"/>
  <circle cx="200" cy="215" r="12" fill="#3b82f6" opacity="0.6"/>
  <!-- Footer -->
  <rect x="0" y="250" width="400" height="50" fill="#2563eb" opacity="0.1"/>
  <rect x="150" y="268" width="100" height="10" rx="5" fill="#2563eb"/>
</svg>
